<?xml version="1.0" encoding="utf-8"?>
<!-- Generator: Adobe Illustrator 16.0.0, SVG Export Plug-In . SVG Version: 6.00 Build 0)  -->
<!DOCTYPE svg PUBLIC "-//W3C//DTD SVG 1.1//EN" "http://www.w3.org/Graphics/SVG/1.1/DTD/svg11.dtd">
<svg version="1.1" id="Layer_1" xmlns="http://www.w3.org/2000/svg" xmlns:xlink="http://www.w3.org/1999/xlink" x="0px" y="0px"
	 width="501.587px" height="538px" viewBox="0 0 501.587 538" enable-background="new 0 0 501.587 538" xml:space="preserve">
<path d="M386.197,207.93c9.696,0.751,18.922,4.286,25.967,11.118c3.231,3.129,6.542,4.882,8.665,8.962
	c2.747,5.663,6.443,10.786,9.456,16.295c3.065,6.075,9.077,16.304,1.508,21.407c-4.354,2.505-9.137,0.945-12.301-2.321
	c-3.953-4.079-8.885-6.987-14.118-9.11c-3.168-1.285-9.975-4.805-13.416-3.82c-3.864,1.105-1.219,8.607-0.608,11.015
	c2.333,9.174,4.996,18.88,5.992,28.401c0.581,5.557,2.638,11.044,2.587,16.609c-0.061,6.314,0.465,12.612,1.078,18.89
	c1.275,13.064,1.895,26.126,3.44,39.159c2.966,25.012,5.35,50.544,6.729,75.751c0.608,11.104,2.896,21.943,3.648,32.912
	c0.601,8.764-3.324,13.489-11.142,17.711c-8.671,4.683-23.981,1.92-33.328,0.854c-10.279-1.173-19.01-6.182-23.236-16.059
	c-1.897-4.435-4.662-8.048-5.97-13.039c-1.465-5.591-1.311-11.119-1.337-16.842c-0.06-13.107,0.94-25.73,1.943-38.767
	c0.924-12.023,2.273-24.039,3.054-36.06c0.865-13.328,0.284-26.302,0.139-39.626c-0.238-21.564-2.282-48.188-15.23-66.234
	c-3.618-4.104-7.236-8.206-10.856-12.308c-2.155-2.341-7.325-2.203-10.129-2.9c-7.369-0.098-12.499-1.476-19.543,1.431
	c-4.735,1.495-7.44,4.989-11.564,7.255c-1.33,0.938-5.207,5.337-6.689,6.586c-7.741,6.523-11.226,18.656-11.45,28.347
	c-0.266,11.455,0.145,22.862,0.074,34.332c-0.038,6.343-0.16,12.688-0.088,19.03c0.068,5.843-0.833,13.851,1.295,19.394
	c0.045,12.261,1.275,24.508,1.521,36.77c0.268,13.415,2.664,27.11,2.315,40.432c-0.256,9.739,1.715,20.456,3.754,29.997
	c2.156,10.09,4.719,19.306-6.892,23.493c-4.533,1.635-10.774,0.419-15.513,0.447c-5.941,0.036-11.69,0.269-17.567-0.857
	c-10.105-1.937-21.892-4.601-29.267-12.292c-10.369-10.811-10.776-28.77-10.098-42.765c0.829-17.058,3.467-34.105,3.27-51.203
	c0.019-3.045,1.659-5.884,1.741-9.159c0.114-4.637,0.417-9.128,1.131-13.669c1.324-8.427,1.654-16.981,1.708-25.495
	c0.127-19.643,0.093-39.287-0.017-58.928c-0.094-16.461-2.311-33.58-4.983-49.756c-2.556-15.472-5.077-30.879-17.682-41.597
	c-6.132-5.214-11.283-7.477-19.325-6.232c-8.127,1.258-15.635,4.643-21.74,10.194c-4.496,4.089-8.21,8.836-11.829,13.722
	c-1.762,1.45-4.445,15.168-6.573,15.168c-2.846,4.52-5.408,9.24-7.315,14.237c-1.387,3.637-1.329,11.089-3.529,13.999
	c-0.042,4.112-1.873,7.787-1.859,11.778c0.02,5.374-3.147,9.579-3.801,14.742c-1.117,8.812-14.074,11.9-20.291,8.045
	c-8.001-4.964-10.881-11.841-13.238-20.796c-2.525-9.594-3.668-23.767-0.664-33.317c1.588-11.268,1-23.983,6.804-34.18
	c4.591-8.064,7.231-17.123,12.027-25.195c5.057-9.438,13.213-15.766,21.029-22.951c4.055-3.728,8.073-7.389,12.496-10.682
	c4.533-3.375,10.188-5.662,14.421-9.336c4.174-3.623,3.253-7.118,6.044-11.503c2.92-4.59,6.729-8.027,9.291-12.94
	c4.396-8.428,5.913-17.77,5.836-27.17c-0.048-5.896-0.303-9.875-1.903-15.692c-0.554-2.011-0.964-3.726-2.04-5.528
	c-2.244-2.323-1.196-5.896-2.896-7.964c-1.182-3.817,0.729-7.63,3.904-9.799c4.403-3.007,8.666,0.023,12.906,1.873
	c9.462,4.125,16.22,11.136,20.428,20.443c7.719,17.074-3.339,35.424-5.61,52.332c-0.523,3.897-3.679,5.654-0.517,9.3
	c2.625,3.027,5.435-0.068,7.629-2.275c5.964-6,12.626-11.002,18.861-16.705c7.201-6.59,15.142-9.661,18.828-19.322
	c4.327-11.333-3.029-22.93-3.47-34.293c-0.139-3.606,0.003-11.755,3.789-13.859c4.256-1.476,9.157-0.217,13.053,1.725
	c8.237,4.104,15.28,12.439,18.171,21.137c1.659,4.99,1.886,10.224,1.691,15.438c-0.208,5.573-1.756,9.153-2.969,14.387
	c-2.165,9.349-6.441,20.316-11.591,28.516c-4.503,7.171-9.251,13.08-15.775,18.64c-3.088,2.632-7.634,4.697-6.816,9.51
	c0.734,4.334,5.425,8.879,7.38,12.961c2.244,4.687,4.287,9.524,6.029,14.42c1.589,4.466,5.111,9.835,5.376,14.437
	c0.539,2.831,2.316,11.114,6.354,10.915c4.182-0.207,9.802-4.75,13.816-6.347c4.526-1.802,8-5.313,12.697-6.91
	c5.254-1.786,10.856-1.964,16.353-1.791c11.192,0.352,23.722,5.547,33.217,11.282c8.897,5.375,17.763,14.114,28.949,14.097
	c5.752-0.009,11.65-1.612,17.435-1.936C372.225,207.903,379.213,207.957,386.197,207.93
	C396.111,208.698,374.212,207.977,386.197,207.93z"/>
<g>
</g>
<g>
</g>
<g>
</g>
<g>
</g>
<g>
</g>
<g>
</g>
</svg>
