<?xml version="1.0" encoding="utf-8"?>
<!-- Generator: Adobe Illustrator 16.0.0, SVG Export Plug-In . SVG Version: 6.00 Build 0)  -->
<!DOCTYPE svg PUBLIC "-//W3C//DTD SVG 1.1//EN" "http://www.w3.org/Graphics/SVG/1.1/DTD/svg11.dtd">
<svg version="1.1" id="Layer_1" xmlns="http://www.w3.org/2000/svg" xmlns:xlink="http://www.w3.org/1999/xlink" x="0px" y="0px"
	 width="501.586px" height="538px" viewBox="0 0 501.586 538" enable-background="new 0 0 501.586 538" xml:space="preserve">
<path d="M439.549,282.536c-0.549-8.845-1.112-17.688-1.633-26.536c-0.534-9.139,1.35-17.992,3.018-26.905
	c0.718-3.836,0.808-7.912,0.441-11.81c-0.933-9.939-3.118-19.833-3.204-29.758c-0.068-8.115-2.878-15.375-4.558-22.949
	c-1.303-5.865-4.963-11.187-6.444-17.036c-2.863-11.328-8.185-21.5-13.966-31.393c-7.869-13.469-16.593-26.441-27.979-37.289
	c-3.412-3.254-7.436-5.899-11.314-8.63c-3.682-2.591-7.543-4.93-11.321-7.385c-4.033-2.619-7.865-5.653-12.157-7.732
	c-3.57-1.729-8.214-1.511-11.454-3.596c-9.161-5.892-19.747-6.156-29.765-8.616c-3.775-0.927-7.669-1.392-11.522-1.984
	c-7.274-1.123-14.555-3.064-21.839-3.088c-15.681-0.048-31.383,0.596-47.039,1.581c-7.912,0.495-15.746,2.311-23.603,3.614
	c-2.638,0.438-5.227,1.169-7.85,1.697c-2.229,0.45-4.554,0.56-6.701,1.244c-5.404,1.72-11.047,2.229-16.235,5.298
	c-4.186,2.476-9.829,2.334-14.503,4.171c-9.166,3.601-18.166,7.654-27.101,11.806c-1.935,0.898-3.228,3.098-4.954,4.53
	c-6.604,5.481-13.413,10.729-19.856,16.39c-4.489,3.945-8.845,8.146-12.634,12.748c-3.468,4.209-6.174,9.062-9.071,13.722
	c-2.749,4.421-5.738,8.763-7.876,13.478c-6.423,14.167-12.504,28.492-18.656,42.78c-0.892,2.074-2.359,4.462-2,6.418
	c1.815,9.895-3.154,19.73-0.021,29.581c0.199,0.626-0.304,1.467-0.443,2.214c-0.578,3.086-1.448,6.154-1.644,9.265
	c-0.285,4.568,0.533,9.276-0.248,13.724c-1.026,5.84-5.329,11.7,1.835,16.569c0.382,0.26,0.568,1.146,0.493,1.694
	c-1.166,8.499,1.796,17.24-1.799,25.678c-0.92,2.157-0.231,5.126,0.131,7.663c0.35,2.458,1.468,4.807,1.827,7.265
	c0.594,4.077,4.518,7.138,8.677,6.789c1.823-0.154,3.864,0.047,5.535,0.739c6.44,2.67,9.227,0.969,9.189-5.849
	c-0.062-11.479,0.12-22.966-0.229-34.436c-0.163-5.372-1.326-10.713-2.153-16.955c3.92-0.551,7.102-1.204,10.308-1.384
	c2.729-0.15,5.604,0.825,8.208,0.296c7.465-1.516,11.541,4.032,11.201,10.351c-0.386,7.163-0.331,14.348-0.441,21.525
	c-0.014,0.913,0.095,1.832,0.205,2.739c0.519,4.292,1.238,8.567,1.548,12.874c0.584,8.082,3.689,12.363,11.291,14.425
	c2.602,0.705,5.39,0.776,8.104,1.001c1.961,0.163,4.889,0.906,5.702-0.047c1.358-1.591,1.869-4.34,1.83-6.586
	c-0.056-3.246-1.332-6.474-1.375-9.718c-0.181-13.926-0.179-27.858-0.076-41.786c0.038-5.099,3.825-7.44,8.471-5.944
	c1.602,0.515,3.538,0.146,5.302-0.028c3.445-0.343,6.875-1.1,10.313-1.105c1.073-0.002,3.014,1.805,3.086,2.882
	c0.596,9.037,0.289,18.065,1.287,27.173c0.549,5.023,0.868,10.803,0.317,16.248c-0.323,3.179-0.35,6.47,0.103,9.622
	c0.412,2.889,0.774,6.945,2.684,8.24c5.631,3.822,12.262,5.381,19.09,3.223c1.35-0.427,3.025-2.096,3.252-3.413
	c0.963-5.637,1.794-11.342,2.011-17.05c0.313-8.229,0.047-16.479,0.041-24.722c0-1.375-0.384-3.011,0.214-4.073
	c1.506-2.682,0.696-4.921-0.013-7.632c-1.778-6.804,0.015-10.322,5.565-11.659c2.591-0.624,5.396-0.315,8.09-0.565
	c4.549-0.419,8.334,0.099,8.779,5.869c0.15,1.945,1.089,3.89,0.962,5.788c-0.87,13.047,2.327,26.041,0.287,39.142
	c-0.522,3.35,1.125,6.99,1.462,10.528c1.018,10.644-2.19,21.52,1.776,32.037c0.292,0.775-0.521,1.988-0.872,2.979
	c-0.296,0.833-1.181,1.866-0.932,2.415c2.369,5.242,2.179,10.359-0.084,15.575c-0.375,0.863,0.034,2.104,0.195,3.152
	c0.338,2.203,1.037,4.392,1.07,6.596c0.059,3.922,0.857,7.675-0.878,11.836c-1.146,2.751,1.337,6.853,1.627,10.397
	c0.571,6.943,0.928,13.916,1.013,20.881c0.05,4.177-1.014,8.379-0.835,12.537c0.704,16.263,1.993,32.5,2.478,48.766
	c0.266,8.929-0.852,17.891-0.866,26.838c-0.003,2.229,1.772,6.315,2.869,6.362c4.138,0.178,8.343-0.89,12.483-1.699l12.545-0.325
	c4.367,0.449,8.885-0.107,13.288-0.652c3.146-0.392,3.879-2.789,3.567-5.738c-1.386-13.09-1.028-26.269-2.039-39.402
	c-1.238-16.068-1.092-32.239-1.701-48.361c-0.17-4.491-1.908-9.161-1.083-13.389c0.836-4.281,1.869-8.004-0.636-11.945
	c-0.254-0.398,0.754-1.532,1.058-2.367c0.296-0.816,0.708-1.724,0.601-2.531c-0.517-3.922-1.663-7.818-1.723-11.737
	c-0.189-12.696-0.157-25.398,0.083-38.095c0.237-12.488-2.282-24.955-0.259-37.455c0.09-0.555-0.279-1.17-0.369-1.766
	c-0.463-3.086-1.373-6.189-1.266-9.258c0.377-10.779,1.18-21.542,1.662-32.318c0.148-3.301,0.403-6.245,4.595-6.463
	c3.964-0.206,6.753,2.435,7.101,6.323c0.146,1.602,0.879,3.145,1.116,4.749c0.592,3.961,1.295,7.932,1.475,11.92
	c0.111,2.483-1.059,5.026-0.937,7.507c0.251,5.127,1.174,10.223,1.453,15.355c0.251,4.573,0.021,9.175-0.011,13.765
	c-0.101,13.237,1.794,14.154,14.264,13.758c4.08-0.129,8.103-2.537,12.093-4.055c0.424-0.162,0.635-1.348,0.643-2.06
	c0.075-9.33,0.628-18.601,1.755-27.884c0.484-4.003-1.389-8.233-1.425-12.371c-0.082-8.979-2.207-18.2,2.39-27.02
	c6.872,0,13.747,0.018,20.622-0.003c8.795-0.029,15.875,6.014,15.686,14.976c-0.13,6.276,4.83,12.231,0.957,18.597
	c-0.1,0.169,0.227,0.553,0.252,0.844c0.362,4.512,0.718,9.026,1.037,13.542c0.028,0.424-0.072,0.985-0.338,1.281
	c-5.148,5.718-1.428,11.933-0.785,17.877c0.168,1.547,2.26,3.797,3.807,4.12c5.447,1.145,11.042,1.618,16.586,2.3
	c5.701,0.703,8.045-2.218,7.654-7.916c-0.578-8.368-2.616-16.645-3.036-25.011c-0.56-11.146-0.384-22.347-0.036-33.508
	c0.101-3.129,1.281-7.037,5.63-7.088c12.854-0.156,25.715-0.096,38.571,0.062c1.142,0.015,3.098,1.206,3.266,2.108
	c1.385,7.519,5.164,14.594,3.825,22.653c-0.617,3.729-0.452,7.652-0.179,11.456c0.44,6.162,0.95,12.357,2.124,18.408
	c0.326,1.681,2.874,3.538,4.776,4.153c2.242,0.725,5.03,0.694,7.334,0.075c3.208-0.861,6.395-2.273,9.114-4.143
	c0.617-0.426-0.729-3.699-1.169-5.662C439.646,283.139,439.571,282.84,439.549,282.536z M249.546,208.4
	c-36.413,0.639-65.894-27.935-66.586-64.542c-0.654-34.558,28.443-64.535,63.163-65.069c36.833-0.567,65.619,27.685,66.354,65.129
	C313.142,177.713,283.779,207.798,249.546,208.4z"/>
</svg>
